<svg width="192" height="192" viewBox="0 0 192 192" fill="none" xmlns="http://www.w3.org/2000/svg">
<g clip-path="url(#clip0_2043_2)">
<rect width="192" height="192" fill="#C8BBFF"/>
<path d="M118.077 109.664H124.85V104.827C128.075 104.247 130.848 102.989 133.17 101.054C135.492 99.1188 136.653 96.2486 136.653 92.4431C136.653 89.7341 135.879 87.2509 134.331 84.9934C132.783 82.7359 129.687 80.7687 125.043 79.0917C121.173 77.8017 118.497 76.673 117.013 75.7055C115.53 74.738 114.788 73.4158 114.788 71.7388C114.788 70.0618 115.385 68.7396 116.578 67.7721C117.771 66.8046 119.496 66.3208 121.754 66.3208C123.818 66.3208 125.43 66.8207 126.591 67.8204C127.752 68.8202 128.591 70.0618 129.107 71.5453L135.299 69.0298C134.589 66.7723 133.283 64.8051 131.38 63.1281C129.478 61.4511 127.365 60.5159 125.043 60.3224V55.4849H118.271V60.3224C115.046 61.0319 112.53 62.4509 110.724 64.5793C108.919 66.7078 108.016 69.0943 108.016 71.7388C108.016 74.7703 108.902 77.2212 110.676 79.0917C112.45 80.9622 115.239 82.5747 119.045 83.9292C123.108 85.4127 125.93 86.7349 127.51 87.8959C129.091 89.0569 129.881 90.5726 129.881 92.4431C129.881 94.5716 129.123 96.1357 127.607 97.1355C126.091 98.1352 124.269 98.6351 122.141 98.6351C120.012 98.6351 118.126 97.9739 116.481 96.6517C114.836 95.3295 113.627 93.3461 112.853 90.7016L106.468 93.2171C107.371 96.3131 108.773 98.8124 110.676 100.715C112.579 102.618 115.046 103.924 118.077 104.634V109.664ZM121.56 121.274C116.207 121.274 111.176 120.259 106.468 118.227C101.759 116.195 97.6634 113.438 94.1804 109.955C90.6974 106.472 87.9401 102.376 85.9083 97.6676C83.8766 92.9591 82.8607 87.9281 82.8607 82.5747C82.8607 77.2212 83.8766 72.1903 85.9083 67.4818C87.9401 62.7733 90.6974 58.6776 94.1804 55.1947C97.6634 51.7117 101.759 48.9543 106.468 46.9226C111.176 44.8909 116.207 43.875 121.56 43.875C126.914 43.875 131.945 44.8909 136.653 46.9226C141.362 48.9543 145.457 51.7117 148.94 55.1947C152.423 58.6776 155.181 62.7733 157.213 67.4818C159.244 72.1903 160.26 77.2212 160.26 82.5747C160.26 87.9281 159.244 92.9591 157.213 97.6676C155.181 102.376 152.423 106.472 148.94 109.955C145.457 113.438 141.362 116.195 136.653 118.227C131.945 120.259 126.914 121.274 121.56 121.274ZM121.56 113.534C130.203 113.534 137.524 110.535 143.522 104.537C149.521 98.5383 152.52 91.2176 152.52 82.5747C152.52 73.9318 149.521 66.6111 143.522 60.6126C137.524 54.6142 130.203 51.6149 121.56 51.6149C112.917 51.6149 105.597 54.6142 99.5983 60.6126C93.5999 66.6111 90.6007 73.9318 90.6007 82.5747C90.6007 91.2176 93.5999 98.5383 99.5983 104.537C105.597 110.535 112.917 113.534 121.56 113.534Z" fill="#363636"/>
<path d="M43.125 140.76V142.635C43.125 144.198 42.5781 145.526 41.4844 146.619C40.3906 147.713 39.0625 148.26 37.5 148.26C35.9375 148.26 34.6094 147.713 33.5156 146.619C32.4219 145.526 31.875 144.198 31.875 142.635V115.823C31.875 115.385 31.9062 114.948 31.9688 114.51C32.0313 114.073 32.125 113.666 32.25 113.291L39.2812 93.3226C39.7813 91.8226 40.6875 90.6038 42 89.6663C43.3125 88.7288 44.7812 88.2601 46.4062 88.2601H84.8438C86.4688 88.2601 87.9375 88.7288 89.25 89.6663C90.5625 90.6038 91.4687 91.8226 91.9688 93.3226L99 113.291C99.125 113.666 99.2187 114.073 99.2812 114.51C99.3438 114.948 99.375 115.385 99.375 115.823V142.635C99.375 144.198 98.8281 145.526 97.7344 146.619C96.6406 147.713 95.3125 148.26 93.75 148.26C92.1875 148.26 90.8594 147.713 89.7656 146.619C88.6719 145.526 88.125 144.198 88.125 142.635V140.76H43.125ZM42.375 107.01H88.875L84.9375 95.7601H46.3125L42.375 107.01ZM48.75 129.51C50.3125 129.51 51.6406 128.963 52.7344 127.869C53.8281 126.776 54.375 125.448 54.375 123.885C54.375 122.323 53.8281 120.994 52.7344 119.901C51.6406 118.807 50.3125 118.26 48.75 118.26C47.1875 118.26 45.8594 118.807 44.7656 119.901C43.6719 120.994 43.125 122.323 43.125 123.885C43.125 125.448 43.6719 126.776 44.7656 127.869C45.8594 128.963 47.1875 129.51 48.75 129.51ZM82.5 129.51C84.0625 129.51 85.3906 128.963 86.4844 127.869C87.5781 126.776 88.125 125.448 88.125 123.885C88.125 122.323 87.5781 120.994 86.4844 119.901C85.3906 118.807 84.0625 118.26 82.5 118.26C80.9375 118.26 79.6094 118.807 78.5156 119.901C77.4219 120.994 76.875 122.323 76.875 123.885C76.875 125.448 77.4219 126.776 78.5156 127.869C79.6094 128.963 80.9375 129.51 82.5 129.51ZM39.375 133.26H91.875V114.51H39.375V133.26Z" fill="#363636"/>
</g>
<defs>
<clipPath id="clip0_2043_2">
<rect width="192" height="192" fill="white"/>
</clipPath>
</defs>
</svg>
